<svg xmlns="http://www.w3.org/2000/svg" viewBox="0 0 82.367 99.668"><path fill="#e61b24" d="M55.963 47.135v.1c-.401 2.4-1.103 4.803-1.904 7.105-1.201 4.002-2.703 7.804-4.405 11.607-1.202 2.401-2.402 4.802-3.804 7.203a108.904 108.904 0 01-7.608 11.508c-3.804 5.404-8.21 10.307-12.814 15.01h23.226c.1-.2.3-.4.5-.5 7.008-6.404 13.014-13.71 18.52-21.314 5.305-7.405 10.213-15.41 12.916-24.116.1-.1-2.504-.7-2.604-.7-4.505-1.202-8.91-2.401-13.414-3.602-2.904-.701-5.806-1.401-8.61-2.301zm-31.336.097c-1.502.2-3.004.802-4.506 1.202a201.328 201.328 0 00-7.406 1.902c-4.004 1.1-8.109 2.1-12.213 3.201-.1 0-.502.2-.502.2 1.301 4.302 3.503 8.506 5.705 12.51 2.303 4.102 4.705 8.104 7.408 11.907 1.002 1.5 2.104 2.902 3.205 4.403 1.101 1.4 2.203 2.802 3.405 4.203 1.802 2.1 3.604 4.204 5.506 6.205 2.402-2.402 4.605-5.003 6.707-7.705 1-1.201 1.901-2.502 2.802-3.703.3-.4 2.703-3.903 2.703-3.903s-.7-1.201-1.101-1.802c-4.205-6.804-7.608-14.11-9.91-21.815a75.402 75.402 0 01-1.803-6.805zm-3.104 9.87c.075.012.15.088.2.238.1.4 0 1.1-.8 2.201-1.1 1.601-5.206 6.504-6.507 9.105-.1.1-.2.1-.3 0-.2-.4-.2-.8.1-1.5.8-1.902 5.405-8.005 7.106-9.906.05-.1.126-.15.201-.138zm-.63 3.687c.037.01.08.028.13.053 1.001.6 2.304 1.2 3.405 1.502.3.1.399.3.199.6-.2.7-.4 1-.8 1.2-1.003.5-2.403 1.1-3.304 1.801-.3.1-.3.101-.4-.199 0-.4.3-1.001.7-1.402.5-.5 1.2-.8 1.902-1.2-.5-.2-1.002-.5-1.403-.7-.5-.402-.7-1.001-.6-1.401 0-.225.058-.282.17-.254zm-6.752.553c.05.025.074.101.074.201.1.4-.1 1.1-.6 1.502-.5.5-1.3.898-2.101 1.398.5.2 1 .4 1.4.702.4.3.6.8.6 1.3 0 .201-.1.301-.4.201-.7-.5-1.903-.9-2.704-1.3-.4-.1-.5-.4-.7-1.102-.1-.3-.098-.4.302-.6 1.1-.4 3.001-1.602 3.902-2.203.1-.1.177-.124.227-.1z"/><path fill="#fff" d="M40.547 0C30.435 0 21.123 7.806 21.123 19.914c0 4.103 1.102 8.407 2.904 12.51l-8.71-1.602.802 5.905 8.71-2.604-6.509 6.906c.5.2 5.407 2.402 5.407 2.602.2-.9.6-1.8.902-2.602.4-1.1.8-2.102 1.1-3.203.1-.3.2-.7.2-1.1 0-.2.1-.5 0-.7 3.005 5.102 8.21 10.706 14.618 10.706 11.913 0 19.318-16.21 19.318-26.318C59.865 8.306 50.557.002 40.547.002V0zm37.627 8.488a.973.973 0 00-.79.62c-1 2.6-4.503 11.406-10.71 25.216-1.501-.4-2.704-.4-3.004.1-.1 0-.602 1.101-.602 1.101-.3.601.503 1.5 1.905 2.5-.801 2.002-1.803 3.905-2.703 5.907l5.205 1.298c.4.201 1.802-5.001 2.302-5.001 1.602.5 2.703.499 3.004-.102l.5-1.1c.2-.6-.501-1.5-1.802-2.4 6.307-14.01 9.81-23.017 10.81-25.719v-.002c.2-.5 0-.999-.5-1.199l-3.303-1.2a.871.871 0 00-.312-.019zm-37.666.77c6.019 0 12.05 1.65 14.652 4.953 1.401 1.9 1.601 8.906 0 8.506-13.714-4.103-16.216-3.803-29.23 0-1.602.4-1.502-6.605 0-8.506 2.552-3.302 8.559-4.953 14.578-4.953zm-7.281 6.18c-1.236.053-2.663.524-4.196 1.775h8.711s-1.798-1.894-4.515-1.776zm14.214 0c-1.235.053-2.66.524-4.193 1.775h8.709s-1.798-1.894-4.516-1.776z"/></svg>