<svg xmlns="http://www.w3.org/2000/svg" viewBox="0 0 125 83.332495" id="EUR">
  <path d="M0 83.332h125V0H0v83.332z" fill="#293e93"></path>
  <path d="M57.21 10.581h3.693l1.304-3.531 1.248 3.531h3.803l-2.988 2.282 1.086 3.802-3.204-2.39-3.042 2.28 1.141-3.53-3.042-2.444m-14.692 4.14h3.694l1.304-3.532 1.25 3.532h3.803l-2.988 2.282 1.086 3.803-3.205-2.392-3.042 2.281 1.141-3.531-3.043-2.443m29.917 0h3.694l1.304-3.532 1.25 3.532h3.802l-2.988 2.282 1.087 3.803-3.205-2.392-3.042 2.281 1.14-3.531-3.042-2.443M42.517 66.006h3.694l1.304-3.532 1.25 3.532h3.803L49.58 68.29l1.086 3.802-3.205-2.391-3.042 2.281 1.141-3.53-3.043-2.445m29.917-.001h3.694l1.304-3.532 1.25 3.532h3.802l-2.988 2.283 1.087 3.802-3.205-2.391-3.042 2.281 1.14-3.53-3.042-2.445M31.833 25.405h3.694l1.304-3.531 1.25 3.531h3.801l-2.987 2.284 1.087 3.801-3.205-2.391-3.042 2.281 1.14-3.531-3.042-2.444m51.285 0h3.693l1.304-3.531 1.25 3.531h3.803l-2.987 2.284 1.086 3.801-3.206-2.391-3.042 2.281 1.142-3.531-3.043-2.444M31.833 55.323h3.694l1.304-3.534 1.25 3.534h3.801l-2.987 2.28 1.087 3.803-3.205-2.391-3.042 2.281 1.14-3.53-3.042-2.443m51.285 0h3.693l1.304-3.534 1.25 3.534h3.803l-2.987 2.28 1.086 3.803-3.206-2.391-3.042 2.281 1.142-3.53-3.043-2.443M27.559 40.365h3.694l1.303-3.531 1.25 3.531h3.804l-2.988 2.281 1.086 3.803-3.205-2.39-3.042 2.28 1.14-3.53-3.042-2.444m59.834 0h3.693l1.303-3.531 1.251 3.531h3.801l-2.986 2.281 1.085 3.803-3.205-2.39-3.042 2.28 1.142-3.53-3.042-2.444M57.21 70.2h3.693l1.304-3.533 1.248 3.533h3.803l-2.988 2.281 1.086 3.803-3.204-2.392-3.042 2.283 1.141-3.533L57.21 70.2" fill="#fbc607"></path>
</svg>
