<svg xmlns="http://www.w3.org/2000/svg" viewBox="0 0 125 83.332603" id="GBP">
  <path d="M72.861 0v25.341L110.926.001h14.04v9.554L97.51 28.041h27.456v27.42H97.51l27.456 18.487-.061 9.293-14.135.054-37.909-25.341v25.341H52.112V57.954l-37.91 25.341H.005v-9.347L27.774 55.46H.004V27.834h27.77L.054 9.555.04.029l14.162.036 37.91 25.484V0h20.75" fill="#fff"></path>
  <path d="M52.113.1H14.256l37.857 25.45V.1M27.774 55.461H.04v18.462L27.774 55.46M72.861.1v25.241L110.775.101H72.861M27.774 27.834L.054 9.555.04 9.511v18.323h27.734m82.996 55.461L72.861 57.954v25.379h38.058l-.149-.038M52.113 57.954l-37.91 25.341-.17.038h38.08v-25.38M97.51 28.041H125V9.486l-.034.07L97.51 28.04m0 27.421l27.456 18.487.034.105V55.46H97.51" fill="#263375"></path>
  <path d="M124.974 33.166H68.7V.068H56.22v33.098H0v16.617h56.221v33.515h12.48V49.783h56.273V33.166" fill="#ed1a2b"></path>
  <path d="M124.905 83.241l-.013-6.12L92.72 55.805h-8.566l40.751 27.436M.54 83.295h8.843l41.396-27.49-9.458-.239L.54 83.296M.04 6.379V.388l40.79 27.138h-8.344L.04 6.38M124.966.1h-9.341L74.518 27.765h8.832L124.966.1" fill="#ed1a2b"></path>
</svg>
