<svg xmlns="http://www.w3.org/2000/svg" viewBox="0 0 125 83.334198" id="USD">
  <path d="M0 83.334h125V0H0v83.334z" fill="#fff"></path>
  <path d="M0 6.335h125V0H0v6.335zM0 19.1h125v-6.232H0V19.1zm0 12.867h125v-6.233H0v6.233zm0 12.768h125V38.4H0v6.335zm0 12.867h125v-6.333H0v6.333zm0 12.866h125v-6.235H0v6.235zm0 12.866h125V77.1H0v6.235z" fill="#d21c31"></path>
  <path d="M0 44.735h63.242V0H0v44.735z" fill="#353570"></path>
  <path d="M4.907 3.72l.497-1.858.605 1.825 1.918-.104L6.38 4.722l.691 1.795L5.51 5.395 4.016 6.607 4.6 4.775 2.986 3.73l1.921-.01m10.492 0l.495-1.858.606 1.825 1.919-.104-1.548 1.139.69 1.795L16 5.395l-1.491 1.212.583-1.832-1.613-1.045 1.92-.01m10.492 0l.494-1.858.605 1.825 1.919-.104-1.548 1.139.691 1.795-1.562-1.122-1.492 1.212.583-1.832-1.614-1.045 1.924-.01m10.492 0l.495-1.858.603 1.825 1.919-.104-1.547 1.139.69 1.795-1.563-1.122-1.491 1.212.584-1.832-1.614-1.045 1.924-.01m10.49 0l.496-1.858.602 1.825 1.92-.104-1.548 1.139.69 1.795-1.562-1.122-1.491 1.212.583-1.832-1.614-1.045 1.924-.01M10.054 8.272l.496-1.858.605 1.826 1.919-.102-1.548 1.137.692 1.794-1.563-1.122-1.491 1.212.582-1.83-1.613-1.047 1.92-.01m10.492 0l.495-1.858.606 1.826 1.919-.102-1.548 1.137.69 1.794-1.562-1.122-1.491 1.212.584-1.83-1.614-1.047 1.921-.01m10.494 0l.492-1.858.605 1.826 1.92-.102-1.548 1.137.69 1.794-1.562-1.122-1.491 1.212.582-1.83-1.613-1.047 1.925-.01m10.49 0l.496-1.858.603 1.826 1.918-.102L43 9.275l.691 1.794-1.562-1.122-1.493 1.212.584-1.83-1.614-1.047 1.924-.01m10.49 0l.495-1.858.604 1.826 1.919-.102-1.55 1.137.692 1.794-1.562-1.122-1.492 1.212.584-1.83-1.614-1.047 1.924-.01m5.344-4.552l.496-1.858.603 1.825 1.918-.104-1.547 1.139.691 1.795-1.562-1.122-1.493 1.212.584-1.832L55.44 3.73l1.924-.01M4.907 12.827l.497-1.858.605 1.824 1.918-.103-1.547 1.138.691 1.794-1.562-1.12-1.493 1.211.584-1.831-1.614-1.045 1.921-.01m10.492 0l.495-1.858.606 1.824 1.919-.103-1.548 1.138.69 1.794L16 14.502l-1.491 1.211.583-1.831-1.613-1.045 1.92-.01m10.492 0l.494-1.858.605 1.824 1.919-.103-1.548 1.138.691 1.794-1.562-1.12-1.492 1.211.583-1.831-1.614-1.045 1.924-.01m10.492 0l.495-1.858.603 1.824 1.919-.103-1.547 1.138.69 1.794-1.563-1.12-1.491 1.211.584-1.831-1.614-1.045 1.924-.01m10.49 0l.496-1.858.602 1.824 1.92-.103-1.548 1.138.69 1.794-1.562-1.12-1.491 1.211.583-1.831-1.614-1.045 1.924-.01m10.491 0l.496-1.858.603 1.824 1.918-.103-1.547 1.138.691 1.794-1.562-1.12-1.493 1.211.584-1.831-1.614-1.045 1.924-.01M4.907 21.733l.497-1.858.605 1.827 1.918-.105-1.547 1.14.691 1.793-1.562-1.122-1.493 1.212.584-1.832-1.614-1.045 1.921-.01m10.492 0l.495-1.858.606 1.827 1.919-.105-1.548 1.14.69 1.793L16 23.408l-1.491 1.212.583-1.832-1.613-1.045 1.92-.01m10.492 0l.494-1.858.605 1.827 1.919-.105-1.548 1.14.691 1.793-1.562-1.122-1.492 1.212.583-1.832-1.614-1.045 1.924-.01m10.492 0l.495-1.858.603 1.827 1.919-.105-1.547 1.14.69 1.793-1.563-1.122-1.491 1.212.584-1.832-1.614-1.045 1.924-.01m10.49 0l.496-1.858.602 1.827 1.92-.105-1.548 1.14.69 1.793-1.562-1.122-1.491 1.212.583-1.832-1.614-1.045 1.924-.01m10.491 0l.496-1.858.603 1.827 1.918-.105-1.547 1.14.691 1.793-1.562-1.122-1.493 1.212.584-1.832-1.614-1.045 1.924-.01m-47.31 4.355l.496-1.858.605 1.824 1.919-.102-1.548 1.137.692 1.795-1.563-1.121-1.491 1.211.582-1.831-1.613-1.045 1.92-.01m10.492 0l.495-1.858.606 1.824 1.919-.102-1.548 1.137.69 1.795-1.562-1.121-1.491 1.211.584-1.831-1.614-1.045 1.921-.01m10.494 0l.492-1.858.605 1.824 1.92-.102-1.548 1.137.69 1.795-1.562-1.121-1.491 1.211.582-1.831-1.613-1.045 1.925-.01m10.49 0l.496-1.858.603 1.824 1.918-.102L43 27.089l.691 1.795-1.562-1.121-1.493 1.211.584-1.831-1.614-1.045 1.924-.01m10.49 0l.495-1.858.604 1.824 1.919-.102-1.55 1.137.692 1.795-1.562-1.121-1.492 1.211.584-1.831-1.614-1.045 1.924-.01M4.907 30.64l.497-1.858.605 1.826 1.918-.103-1.547 1.138.691 1.794-1.562-1.12-1.493 1.21.584-1.83-1.614-1.045 1.921-.013m10.492.001l.495-1.858.606 1.826 1.919-.103-1.548 1.138.69 1.794L16 32.317l-1.491 1.21.583-1.83-1.613-1.045 1.92-.013m10.492.001l.494-1.858.605 1.826 1.919-.103-1.548 1.138.691 1.794-1.562-1.12-1.492 1.21.583-1.83-1.614-1.045 1.924-.013m10.492.001l.495-1.858.603 1.826 1.919-.103-1.547 1.138.69 1.794-1.563-1.12-1.491 1.21.584-1.83-1.614-1.045 1.924-.013m10.49.001l.496-1.858.602 1.826 1.92-.103-1.548 1.138.69 1.794-1.562-1.12-1.491 1.21.583-1.83-1.614-1.045 1.924-.013m10.491.001l.496-1.858.603 1.826 1.918-.103-1.547 1.138.691 1.794-1.562-1.12-1.493 1.21.584-1.83-1.614-1.045 1.924-.013m-47.31 4.554l.496-1.859.605 1.826 1.919-.102-1.548 1.137.692 1.795-1.563-1.123-1.491 1.213.582-1.83-1.613-1.048 1.92-.01m10.492.001l.495-1.859.606 1.826 1.919-.102-1.548 1.137.69 1.795-1.562-1.123-1.491 1.213.584-1.83-1.614-1.048 1.921-.01m10.494.001l.492-1.859.605 1.826 1.92-.102-1.548 1.137.69 1.795-1.562-1.123-1.491 1.213.582-1.83-1.613-1.048 1.925-.01m10.49.001l.496-1.859.603 1.826 1.918-.102L43 36.195l.691 1.795-1.562-1.123-1.493 1.213.584-1.83-1.614-1.048 1.924-.01m10.49.001l.495-1.859.604 1.826 1.919-.102-1.55 1.137.692 1.795-1.562-1.123-1.492 1.213.584-1.83-1.614-1.048 1.924-.01M4.907 39.745l.497-1.857.605 1.824 1.918-.103-1.547 1.14.691 1.794L5.51 41.42l-1.493 1.214L4.6 40.8l-1.614-1.045 1.921-.01m10.492 0l.495-1.857.606 1.824 1.919-.103-1.548 1.14.69 1.794L16 41.42l-1.491 1.214.583-1.834-1.613-1.045 1.92-.01m10.492 0l.494-1.857.605 1.824 1.919-.103-1.548 1.14.691 1.794-1.562-1.123-1.492 1.214.583-1.834-1.614-1.045 1.924-.01m10.492 0l.495-1.857.603 1.824 1.919-.103-1.547 1.14.69 1.794-1.563-1.123-1.491 1.214.584-1.834-1.614-1.045 1.924-.01m10.49 0l.496-1.857.602 1.824 1.92-.103-1.548 1.14.69 1.794-1.562-1.123-1.491 1.214.583-1.834-1.614-1.045 1.924-.01m10.491 0l.496-1.857.603 1.824 1.918-.103-1.547 1.14.691 1.794-1.562-1.123-1.493 1.214.584-1.834-1.614-1.045 1.924-.01M10.054 17.18l.496-1.858.605 1.826 1.919-.103-1.548 1.138.692 1.795-1.563-1.124-1.491 1.214.582-1.831-1.613-1.048 1.92-.01m10.492.001l.495-1.858.606 1.826 1.919-.103-1.548 1.138.69 1.795-1.562-1.124-1.491 1.214.584-1.831-1.614-1.048 1.921-.01m10.494.001l.492-1.858.605 1.826 1.92-.103-1.548 1.138.69 1.795-1.562-1.124-1.491 1.214.582-1.831-1.613-1.048 1.925-.01m10.49.001l.496-1.858.603 1.826 1.918-.103L43 18.183l.691 1.795-1.562-1.124-1.493 1.214.584-1.831-1.614-1.048 1.924-.01m10.49.001l.495-1.858.604 1.826 1.919-.103-1.55 1.138.692 1.795-1.562-1.124-1.492 1.214.584-1.831-1.614-1.048 1.924-.01" fill="#fff"></path>
</svg>
